<mxfile host="Electron" modified="2024-02-13T17:49:08.526Z" agent="Mozilla/5.0 (Windows NT 10.0; Win64; x64) AppleWebKit/537.36 (KHTML, like Gecko) draw.io/22.1.16 Chrome/120.0.6099.109 Electron/28.1.0 Safari/537.36" etag="e2Tpgtv5_GTpBE1E07Vr" version="22.1.16" type="device">
  <diagram name="Page-1" id="FD7odsYnFx_wg6_OjZZ9">
    <mxGraphModel dx="1084" dy="1184" grid="1" gridSize="10" guides="1" tooltips="1" connect="1" arrows="1" fold="1" page="1" pageScale="1" pageWidth="850" pageHeight="1100" math="0" shadow="0">
      <root>
        <mxCell id="0" />
        <mxCell id="1" parent="0" />
        <mxCell id="SPRqrcZAjVDU5G-w8-sk-3" value="&amp;nbsp;Continous analysis&amp;nbsp;" style="edgeStyle=orthogonalEdgeStyle;rounded=0;orthogonalLoop=1;jettySize=auto;html=1;" edge="1" parent="1" source="SPRqrcZAjVDU5G-w8-sk-1" target="SPRqrcZAjVDU5G-w8-sk-2">
          <mxGeometry relative="1" as="geometry" />
        </mxCell>
        <mxCell id="SPRqrcZAjVDU5G-w8-sk-1" value="Management Events" style="sketch=0;outlineConnect=0;fontColor=#232F3E;gradientColor=none;fillColor=#E7157B;strokeColor=none;dashed=0;verticalLabelPosition=bottom;verticalAlign=top;align=center;html=1;fontSize=12;fontStyle=0;aspect=fixed;pointerEvents=1;shape=mxgraph.aws4.event;" vertex="1" parent="1">
          <mxGeometry x="280" y="530" width="78" height="78" as="geometry" />
        </mxCell>
        <mxCell id="SPRqrcZAjVDU5G-w8-sk-6" value="&amp;nbsp;Generate&amp;nbsp;" style="edgeStyle=orthogonalEdgeStyle;rounded=0;orthogonalLoop=1;jettySize=auto;html=1;" edge="1" parent="1" source="SPRqrcZAjVDU5G-w8-sk-2" target="SPRqrcZAjVDU5G-w8-sk-5">
          <mxGeometry relative="1" as="geometry" />
        </mxCell>
        <mxCell id="SPRqrcZAjVDU5G-w8-sk-2" value="AWS CloudTrail Insights" style="sketch=0;points=[[0,0,0],[0.25,0,0],[0.5,0,0],[0.75,0,0],[1,0,0],[0,1,0],[0.25,1,0],[0.5,1,0],[0.75,1,0],[1,1,0],[0,0.25,0],[0,0.5,0],[0,0.75,0],[1,0.25,0],[1,0.5,0],[1,0.75,0]];points=[[0,0,0],[0.25,0,0],[0.5,0,0],[0.75,0,0],[1,0,0],[0,1,0],[0.25,1,0],[0.5,1,0],[0.75,1,0],[1,1,0],[0,0.25,0],[0,0.5,0],[0,0.75,0],[1,0.25,0],[1,0.5,0],[1,0.75,0]];outlineConnect=0;fontColor=#232F3E;fillColor=#E7157B;strokeColor=#ffffff;dashed=0;verticalLabelPosition=bottom;verticalAlign=top;align=center;html=1;fontSize=12;fontStyle=0;aspect=fixed;shape=mxgraph.aws4.resourceIcon;resIcon=mxgraph.aws4.cloudtrail;" vertex="1" parent="1">
          <mxGeometry x="590" y="530" width="78" height="78" as="geometry" />
        </mxCell>
        <mxCell id="SPRqrcZAjVDU5G-w8-sk-4" value="" style="sketch=0;outlineConnect=0;fontColor=#232F3E;gradientColor=none;fillColor=#DD344C;strokeColor=none;dashed=0;verticalLabelPosition=bottom;verticalAlign=top;align=center;html=1;fontSize=12;fontStyle=0;aspect=fixed;pointerEvents=1;shape=mxgraph.aws4.agent;" vertex="1" parent="1">
          <mxGeometry x="460" y="516" width="35.84" height="34" as="geometry" />
        </mxCell>
        <mxCell id="SPRqrcZAjVDU5G-w8-sk-5" value="Insights Events" style="sketch=0;outlineConnect=0;fontColor=#232F3E;gradientColor=none;fillColor=#E7157B;strokeColor=none;dashed=0;verticalLabelPosition=bottom;verticalAlign=top;align=center;html=1;fontSize=12;fontStyle=0;aspect=fixed;pointerEvents=1;shape=mxgraph.aws4.event;" vertex="1" parent="1">
          <mxGeometry x="820" y="530" width="78" height="78" as="geometry" />
        </mxCell>
        <mxCell id="SPRqrcZAjVDU5G-w8-sk-7" value="AWS CloudTrail Console" style="sketch=0;points=[[0,0,0],[0.25,0,0],[0.5,0,0],[0.75,0,0],[1,0,0],[0,1,0],[0.25,1,0],[0.5,1,0],[0.75,1,0],[1,1,0],[0,0.25,0],[0,0.5,0],[0,0.75,0],[1,0.25,0],[1,0.5,0],[1,0.75,0]];points=[[0,0,0],[0.25,0,0],[0.5,0,0],[0.75,0,0],[1,0,0],[0,1,0],[0.25,1,0],[0.5,1,0],[0.75,1,0],[1,1,0],[0,0.25,0],[0,0.5,0],[0,0.75,0],[1,0.25,0],[1,0.5,0],[1,0.75,0]];outlineConnect=0;fontColor=#232F3E;fillColor=#E7157B;strokeColor=#ffffff;dashed=0;verticalLabelPosition=bottom;verticalAlign=top;align=center;html=1;fontSize=12;fontStyle=0;aspect=fixed;shape=mxgraph.aws4.resourceIcon;resIcon=mxgraph.aws4.cloudtrail;" vertex="1" parent="1">
          <mxGeometry x="1050" y="390" width="78" height="78" as="geometry" />
        </mxCell>
        <mxCell id="SPRqrcZAjVDU5G-w8-sk-8" value="Amazon S3" style="sketch=0;points=[[0,0,0],[0.25,0,0],[0.5,0,0],[0.75,0,0],[1,0,0],[0,1,0],[0.25,1,0],[0.5,1,0],[0.75,1,0],[1,1,0],[0,0.25,0],[0,0.5,0],[0,0.75,0],[1,0.25,0],[1,0.5,0],[1,0.75,0]];outlineConnect=0;fontColor=#232F3E;fillColor=#7AA116;strokeColor=#ffffff;dashed=0;verticalLabelPosition=bottom;verticalAlign=top;align=center;html=1;fontSize=12;fontStyle=0;aspect=fixed;shape=mxgraph.aws4.resourceIcon;resIcon=mxgraph.aws4.s3;" vertex="1" parent="1">
          <mxGeometry x="1050" y="530" width="78" height="78" as="geometry" />
        </mxCell>
        <mxCell id="SPRqrcZAjVDU5G-w8-sk-10" value="Amazon EventBridge" style="sketch=0;points=[[0,0,0],[0.25,0,0],[0.5,0,0],[0.75,0,0],[1,0,0],[0,1,0],[0.25,1,0],[0.5,1,0],[0.75,1,0],[1,1,0],[0,0.25,0],[0,0.5,0],[0,0.75,0],[1,0.25,0],[1,0.5,0],[1,0.75,0]];outlineConnect=0;fontColor=#232F3E;fillColor=#E7157B;strokeColor=#ffffff;dashed=0;verticalLabelPosition=bottom;verticalAlign=top;align=center;html=1;fontSize=12;fontStyle=0;aspect=fixed;shape=mxgraph.aws4.resourceIcon;resIcon=mxgraph.aws4.eventbridge;" vertex="1" parent="1">
          <mxGeometry x="1050" y="670" width="78" height="78" as="geometry" />
        </mxCell>
        <mxCell id="SPRqrcZAjVDU5G-w8-sk-11" style="edgeStyle=orthogonalEdgeStyle;rounded=0;orthogonalLoop=1;jettySize=auto;html=1;entryX=0;entryY=0.5;entryDx=0;entryDy=0;entryPerimeter=0;" edge="1" parent="1" source="SPRqrcZAjVDU5G-w8-sk-5" target="SPRqrcZAjVDU5G-w8-sk-8">
          <mxGeometry relative="1" as="geometry" />
        </mxCell>
        <mxCell id="SPRqrcZAjVDU5G-w8-sk-12" style="edgeStyle=orthogonalEdgeStyle;rounded=0;orthogonalLoop=1;jettySize=auto;html=1;entryX=0;entryY=0.5;entryDx=0;entryDy=0;entryPerimeter=0;" edge="1" parent="1" source="SPRqrcZAjVDU5G-w8-sk-5" target="SPRqrcZAjVDU5G-w8-sk-7">
          <mxGeometry relative="1" as="geometry">
            <Array as="points">
              <mxPoint x="974" y="550" />
              <mxPoint x="974" y="429" />
            </Array>
          </mxGeometry>
        </mxCell>
        <mxCell id="SPRqrcZAjVDU5G-w8-sk-14" style="edgeStyle=orthogonalEdgeStyle;rounded=0;orthogonalLoop=1;jettySize=auto;html=1;entryX=0;entryY=0.5;entryDx=0;entryDy=0;entryPerimeter=0;" edge="1" parent="1" source="SPRqrcZAjVDU5G-w8-sk-5" target="SPRqrcZAjVDU5G-w8-sk-10">
          <mxGeometry relative="1" as="geometry">
            <Array as="points">
              <mxPoint x="974" y="590" />
              <mxPoint x="974" y="709" />
            </Array>
          </mxGeometry>
        </mxCell>
      </root>
    </mxGraphModel>
  </diagram>
</mxfile>
